<svg width="16" height="21" viewBox="0 0 16 21" fill="none" xmlns="http://www.w3.org/2000/svg">
<path d="M8.99995 1C8.99995 0.447715 8.55224 0 7.99995 0C7.44767 0 6.99995 0.447715 6.99995 1V2.5C6.99995 2.52773 7.00108 2.5552 7.0033 2.58237C4.16394 3.05688 1.99995 5.52474 1.99995 8.4989V12.5C1.99995 13.0002 1.58984 13.8676 1.14104 14.6671C0.509521 15.7921 0.625179 17.1484 1.83086 17.6075C3.04348 18.0692 4.98321 18.5 7.99995 18.5C11.0167 18.5 12.9564 18.0692 14.1691 17.6075C15.3747 17.1484 15.4904 15.7921 14.8589 14.6671C14.4101 13.8676 14 13.0002 14 12.5V8.49938C14 5.52522 11.836 3.05698 8.99661 2.58238C8.99883 2.55521 8.99995 2.52774 8.99995 2.5V1Z" fill="#D42620"/>
<path d="M4.92006 19.3246C4.95739 19.3572 5.00246 19.3952 5.05496 19.4372C5.20525 19.5574 5.41997 19.7132 5.69133 19.8683C6.2299 20.176 7.02619 20.5 7.99997 20.5C8.97375 20.5 9.77004 20.176 10.3086 19.8683C10.58 19.7132 10.7947 19.5574 10.945 19.4372C10.9975 19.3952 11.0426 19.3572 11.0799 19.3246C10.2055 19.4335 9.18599 19.5 7.99997 19.5C6.81396 19.5 5.79441 19.4335 4.92006 19.3246Z" fill="#D42620"/>
</svg>
