<svg width="20" height="19" viewBox="0 0 20 19" fill="none" xmlns="http://www.w3.org/2000/svg">
<path fill-rule="evenodd" clip-rule="evenodd" d="M19.8617 8.65356L19.2288 16.2491C19.0992 17.804 17.7994 19 16.2391 19H3.75994C2.19968 19 0.899878 17.804 0.770305 16.2491L0.13734 8.65356C0.0515964 7.62464 0.500984 6.62392 1.32698 6.00442L8.19954 0.85C9.26621 0.05 10.7329 0.0500002 11.7995 0.85L18.6721 6.00442C19.4981 6.62392 19.9475 7.62463 19.8617 8.65356ZM7.99957 17.5L7.70719 13.9914C7.59543 12.6502 8.65379 11.5 9.99957 11.5C11.3454 11.5 12.4037 12.6502 12.292 13.9914L11.9996 17.5H7.99957Z" fill="#101928"/>
</svg>
