<svg width="25" height="24" viewBox="0 0 25 24" fill="none" xmlns="http://www.w3.org/2000/svg">
<path fill-rule="evenodd" clip-rule="evenodd" d="M4.85987 2.27807C3.53266 1.64606 2 2.61378 2 4.08379V15.7134C2 16.8705 2.66548 17.9245 3.7102 18.422L8.27007 20.5933C8.4406 20.6746 8.63065 20.7058 8.81821 20.6835L16.1311 19.8129L20.1401 21.7219C21.4673 22.354 23 21.3862 23 19.9162V8.28662C23 7.12949 22.3345 6.07552 21.2898 5.57803L16.7299 3.40667C16.5634 3.32737 16.3782 3.29567 16.1948 3.31508L11.9198 3.76746C11.9099 3.76851 11.9 3.7697 11.8902 3.77104L8.86068 4.18322L4.85987 2.27807ZM21 19.9162L17.3 18.1543V5.89331L20.4299 7.38376C20.7782 7.54958 21 7.90091 21 8.28662V19.9162ZM15.3 17.8977V5.42093L12.145 5.75479L9.7 6.08745V18.5644L15.3 17.8977ZM4 4.08379L7.7 5.84569V18.1067L4.57007 16.6163C4.22183 16.4504 4 16.0991 4 15.7134V4.08379Z" fill="#667185"/>
</svg>
