<svg width="25" height="24" viewBox="0 0 25 24" fill="none" xmlns="http://www.w3.org/2000/svg">
<path d="M2.26758 2.60101C2.26758 2.41726 2.45916 2.2963 2.62506 2.3753L7.07217 4.49297C7.24629 4.57588 7.3572 4.75155 7.3572 4.9444V18.911C7.3572 19.2785 6.97404 19.5204 6.64223 19.3624L2.98016 17.6186C2.54486 17.4113 2.26758 16.9721 2.26758 16.49V2.60101Z" fill="#101928"/>
<path d="M9.41631 19.9796C9.11884 20.015 8.8572 19.7826 8.8572 19.4831V5.2466C8.8572 4.9965 9.04199 4.78488 9.2898 4.75116L12.0412 4.37682L15.5908 4.00121C15.8861 3.96996 16.1434 4.20147 16.1434 4.49843V18.7347C16.1434 18.988 15.954 19.2013 15.7025 19.2312L9.41631 19.9796Z" fill="#101928"/>
<path d="M17.9284 19.5069C17.7543 19.424 17.6434 19.2483 17.6434 19.0555V5.0889C17.6434 4.7214 18.0265 4.47947 18.3583 4.63747L22.0204 6.38132C22.4557 6.5886 22.733 7.02776 22.733 7.50989V21.3989C22.733 21.5826 22.5414 21.7036 22.3755 21.6246L17.9284 19.5069Z" fill="#101928"/>
</svg>
