<svg width="17" height="21" viewBox="0 0 17 21" fill="none" xmlns="http://www.w3.org/2000/svg">
<path fill-rule="evenodd" clip-rule="evenodd" d="M8.5 0C5.73858 0 3.5 2.23858 3.5 5C3.5 7.76142 5.73858 10 8.5 10C11.2614 10 13.5 7.76142 13.5 5C13.5 2.23858 11.2614 0 8.5 0ZM5.5 5C5.5 3.34315 6.84315 2 8.5 2C10.1569 2 11.5 3.34315 11.5 5C11.5 6.65685 10.1569 8 8.5 8C6.84315 8 5.5 6.65685 5.5 5Z" fill="#667185"/>
<path fill-rule="evenodd" clip-rule="evenodd" d="M8.5 21C6.9595 21 4.72982 20.6502 3.05543 19.9174C2.23343 19.5576 1.39745 19.0427 0.911753 18.2974C0.656317 17.9054 0.494833 17.4437 0.500126 16.9282C0.505371 16.4174 0.673439 15.9281 0.955915 15.4728C2.32532 13.2656 5.12679 11 8.5 11C11.8732 11 14.6747 13.2656 16.0441 15.4728C16.3266 15.9281 16.4946 16.4174 16.4999 16.9282C16.5052 17.4437 16.3437 17.9054 16.0882 18.2974C15.6025 19.0427 14.7666 19.5576 13.9446 19.9174C12.2702 20.6502 10.0405 21 8.5 21ZM2.65539 16.5272C2.52372 16.7394 2.50077 16.8757 2.50002 16.9487C2.49932 17.017 2.51686 17.0973 2.58736 17.2055C2.75354 17.4605 3.15707 17.7787 3.85732 18.0852C5.22744 18.6848 7.17324 19 8.5 19C9.82676 19 11.7726 18.6848 13.1427 18.0852C13.8429 17.7787 14.2465 17.4605 14.4126 17.2055C14.4831 17.0973 14.5007 17.017 14.5 16.9487C14.4992 16.8757 14.4763 16.7394 14.3446 16.5272C13.2225 14.7185 10.9843 13 8.5 13C6.01566 13 3.77754 14.7185 2.65539 16.5272Z" fill="#667185"/>
</svg>
