<svg width="15" height="21" viewBox="0 0 15 21" fill="none" xmlns="http://www.w3.org/2000/svg">
<path d="M8.50002 1C8.50002 0.447715 8.0523 0 7.50002 0C6.94773 0 6.50002 0.447715 6.50002 1V2.5C6.50002 2.52773 6.50114 2.5552 6.50336 2.58237C3.664 3.05688 1.50002 5.52474 1.50002 8.4989V12.5C1.50002 13.0002 1.08991 13.8676 0.641105 14.6671C0.00958207 15.7921 0.12524 17.1484 1.33092 17.6075C2.54354 18.0692 4.48327 18.5 7.50002 18.5C10.5168 18.5 12.4565 18.0692 13.6691 17.6075C14.8748 17.1484 14.9904 15.7921 14.3589 14.6671C13.9101 13.8676 13.5 13.0002 13.5 12.5V8.49938C13.5 5.52522 11.336 3.05698 8.49667 2.58238C8.49889 2.55521 8.50002 2.52774 8.50002 2.5V1Z" fill="#101928"/>
<path d="M4.42012 19.3246C4.45745 19.3572 4.50252 19.3952 4.55503 19.4372C4.70532 19.5574 4.92003 19.7132 5.19139 19.8683C5.72996 20.176 6.52625 20.5 7.50003 20.5C8.47381 20.5 9.2701 20.176 9.80867 19.8683C10.08 19.7132 10.2948 19.5574 10.445 19.4372C10.4975 19.3952 10.5426 19.3572 10.5799 19.3246C9.7056 19.4335 8.68605 19.5 7.50003 19.5C6.31402 19.5 5.29447 19.4335 4.42012 19.3246Z" fill="#101928"/>
</svg>
