<svg width="17" height="21" viewBox="0 0 17 21" fill="none" xmlns="http://www.w3.org/2000/svg">
<path fill-rule="evenodd" clip-rule="evenodd" d="M9.50035 1C9.50035 0.447715 9.05264 0 8.50035 0C7.94807 0 7.50035 0.447715 7.50035 1V1.57087C4.10823 2.05593 1.50035 4.97223 1.50035 8.4989L1.50035 12.4993C1.50035 12.4993 1.50036 12.4991 1.50035 12.4993C1.50025 12.5012 1.49957 12.5146 1.49524 12.5409C1.49003 12.5724 1.48079 12.6152 1.46553 12.6703C1.43461 12.782 1.38539 12.9211 1.31662 13.0855C1.17876 13.4151 0.984397 13.7947 0.769441 14.1776C0.365295 14.8975 0.16158 15.7554 0.314518 16.5712C0.475802 17.4316 1.02959 18.1819 1.97541 18.542C2.82032 18.8637 3.94498 19.1579 5.43021 19.333C5.46555 19.3637 5.50734 19.3987 5.55534 19.4371C5.70563 19.5574 5.92035 19.7132 6.19171 19.8682C6.73028 20.176 7.52657 20.5 8.50035 20.5C9.47413 20.5 10.2704 20.176 10.809 19.8682C11.0804 19.7132 11.2951 19.5574 11.4454 19.4371C11.4934 19.3987 11.5352 19.3637 11.5705 19.333C13.0557 19.1579 14.1804 18.8637 15.0253 18.542C15.9711 18.1819 16.5249 17.4316 16.6862 16.5712C16.8391 15.7554 16.6354 14.8975 16.2313 14.1776C16.0163 13.7947 15.8219 13.4151 15.6841 13.0855C15.6153 12.9211 15.5661 12.782 15.5352 12.6703C15.5199 12.6152 15.5107 12.5724 15.5055 12.5409C15.5011 12.5146 15.5005 12.5015 15.5004 12.4996C15.5004 12.4994 15.5004 12.4996 15.5004 12.4996L15.5004 12.4911V8.49938C15.5004 4.9728 12.8925 2.05601 9.50035 1.57088V1ZM3.50035 8.4989C3.50035 5.73772 5.73869 3.5 8.50035 3.5C11.2619 3.5 13.5004 5.73809 13.5004 8.49938V12.5C13.5004 12.9629 13.6738 13.4623 13.8389 13.8571C14.0183 14.2861 14.2534 14.74 14.4873 15.1566C14.7146 15.5616 14.7689 15.9444 14.7204 16.2027C14.6803 16.4166 14.5735 16.574 14.3136 16.6729C13.2387 17.0822 11.4243 17.5 8.50035 17.5C5.57642 17.5 3.76196 17.0822 2.6871 16.6729C2.42724 16.574 2.32036 16.4166 2.28028 16.2027C2.23185 15.9444 2.28606 15.5616 2.51344 15.1566C2.74729 14.74 2.98238 14.2861 3.16177 13.8571C3.3269 13.4623 3.50035 12.9629 3.50035 12.5V8.4989Z" fill="#667185"/>
</svg>
